<svg width="1357" height="1409" xmlns="http://www.w3.org/2000/svg" xmlns:xlink="http://www.w3.org/1999/xlink" xml:space="preserve" overflow="hidden"><defs><clipPath id="clip0"><rect x="1109" y="520" width="1357" height="1409"/></clipPath><clipPath id="clip1"><path d="M2236.6 577.953 1882 520.699 1796.14 1052.49 2150.74 1109.75Z" fill-rule="evenodd" clip-rule="evenodd"/></clipPath><clipPath id="clip2"><path d="M2236.6 577.953 1882 520.699 1796.14 1052.49 2150.74 1109.75Z" fill-rule="evenodd" clip-rule="evenodd"/></clipPath><clipPath id="clip3"><path d="M2236.6 577.953 1882 520.699 1796.14 1052.49 2150.74 1109.75Z" fill-rule="evenodd" clip-rule="evenodd"/></clipPath></defs><g clip-path="url(#clip0)" transform="translate(-1109 -520)"><path d="M1614.48 1002.26C1617.51 981.642 1781.93 988.738 1981.73 1018.11 2181.52 1047.49 2341.02 1088.02 2337.99 1108.64 2334.96 1129.26 2170.54 1122.17 1970.75 1092.79 1770.95 1063.42 1611.45 1022.89 1614.48 1002.26Z" fill="#FF9933" fill-rule="evenodd"/><g clip-path="url(#clip1)"><g clip-path="url(#clip2)"><g clip-path="url(#clip3)"><path d="M80.2858 261.405C81.0468 274.722 94.3644 268.634 100.452 264.449 106.16 260.263 108.062 263.688 108.443 255.697 108.823 250.37 109.204 245.423 109.204 240.096 100.452 239.335 90.9399 241.238 83.7103 246.565 80.2858 249.228 73.0563 257.98 80.2858 261.405" fill="#F6D2A2" fill-rule="evenodd" transform="matrix(-0.987216 -0.159394 -0.159394 0.987215 2291.71 611.462)"/><path d="M87.5154 270.917C84.8518 270.917 79.9053 269.776 79.1443 262.166 76.8613 260.644 76.1003 258.741 76.1003 257.6 75.7198 253.034 80.6663 247.706 83.3298 245.804 89.4179 241.238 97.4084 238.955 105.779 238.955L110.726 238.955 110.726 240.096C111.106 244.282 110.726 248.467 110.345 252.273 110.345 253.414 110.345 254.556 109.965 255.697 109.584 261.405 108.443 262.166 105.779 263.307 104.638 263.688 103.496 264.068 101.594 265.59 99.6914 266.732 93.2229 270.917 87.5154 270.917ZM105.779 241.238C97.7889 241.238 90.5594 243.521 84.8518 247.706 82.1883 249.609 78.3833 254.175 78.7638 257.219 78.7638 258.361 79.5248 259.502 81.0468 260.263L81.8078 260.644 81.8078 261.405C82.1883 267.493 85.2323 268.254 87.5154 268.254 91.3204 268.254 96.6474 265.59 100.072 263.307 102.355 261.785 103.877 261.405 105.018 261.024 106.921 260.263 107.301 260.263 107.682 255.697 107.682 254.556 107.682 253.414 108.062 252.273 108.443 248.848 108.443 245.043 108.443 241.618 107.301 241.238 106.54 241.238 105.779 241.238Z" transform="matrix(-0.987216 -0.159394 -0.159394 0.987215 2291.71 611.462)"/><path d="M80.2858 261.405C82.1883 260.644 84.4713 260.263 85.6128 258.361" fill="#C6B198" fill-rule="evenodd" transform="matrix(-0.987216 -0.159394 -0.159394 0.987215 2291.71 611.462)"/><path d="M80.2858 262.546C79.9053 262.546 79.1443 262.166 79.1443 261.785 78.7638 261.024 79.1443 260.263 79.9053 260.263 80.2858 260.263 80.6663 259.883 80.6663 259.883 82.1883 259.122 83.7103 258.741 84.4713 257.6 84.8518 257.219 85.6128 256.839 86.3738 257.219 86.7543 257.6 87.1348 258.361 86.7543 259.122 85.2323 261.024 83.3298 261.785 81.8078 262.166L81.0468 262.546Z" transform="matrix(-0.987216 -0.159394 -0.159394 0.987215 2291.71 611.462)"/><path d="M111.487 100.452C59.7387 85.9933 98.1694 20.1666 139.644 47.1822Z" fill="#6AD7E5" fill-rule="evenodd" transform="matrix(-0.987216 -0.159394 -0.159394 0.987215 2291.71 611.462)"/><path d="M112.248 101.974 111.106 101.594C84.4713 93.9839 84.8518 74.9588 85.6128 69.2513 87.5154 54.7922 101.213 39.5722 119.477 39.5722 126.707 39.5722 133.556 41.8552 140.405 46.4212L141.547 47.1822ZM119.477 42.2357C102.355 42.2357 89.7984 56.3142 87.8959 69.6318 85.9933 83.3298 94.3644 93.9839 110.726 98.9304L137.742 47.5627C132.034 44.1382 125.946 42.2357 119.477 42.2357Z" transform="matrix(-0.987216 -0.159394 -0.159394 0.987215 2291.71 611.462)"/><path d="M340.929 42.2357C381.643 13.6981 418.932 78.3833 371.369 94.7449Z" fill="#6AD7E5" fill-rule="evenodd" transform="matrix(-0.987216 -0.159394 -0.159394 0.987215 2291.71 611.462)"/><path d="M370.989 96.2669 339.407 41.8552 340.549 41.0942C347.778 36.1476 355.008 33.4841 362.237 33.4841 379.741 33.4841 392.297 47.9432 394.961 62.0217 396.102 67.7293 397.244 87.1348 372.13 95.5059ZM342.832 42.9967 372.13 93.6034C386.97 88.2764 394.58 76.8613 392.297 63.1633 390.014 50.2262 378.219 36.9086 362.237 36.9086 355.769 36.5281 349.3 38.4307 342.832 42.9967Z" transform="matrix(-0.987216 -0.159394 -0.159394 0.987215 2291.71 611.462)"/><path d="M350.061 427.303C360.335 433.772 379.36 453.177 363.759 462.69 348.92 476.388 340.549 447.47 327.231 443.665 332.939 436.055 340.168 428.825 350.061 427.303" fill="#F6D2A2" fill-rule="evenodd" transform="matrix(-0.987216 -0.159394 -0.159394 0.987215 2291.71 611.462)"/><path d="M355.769 467.636C349.681 467.636 344.354 461.548 339.788 455.841 335.602 451.275 331.417 446.328 326.851 444.806L324.948 444.426 326.09 442.904C330.656 436.435 338.266 428.064 349.681 426.162L350.061 426.162 350.442 426.542C356.91 430.728 370.989 442.523 370.608 453.558 370.608 457.743 368.325 461.168 364.14 463.831 361.476 466.495 358.813 467.636 355.769 467.636ZM329.134 442.904C333.7 444.806 337.505 449.753 341.31 453.938 345.876 459.646 350.442 464.592 355.388 464.592 357.671 464.592 359.954 463.451 362.237 461.168L362.618 461.168C366.042 458.885 367.945 456.221 367.945 452.797 367.945 444.045 356.91 433.011 349.3 428.064 342.451 429.967 335.602 434.533 329.134 442.904ZM363.759 463.831C363.379 463.831 362.998 463.451 362.618 463.07 361.857 461.548 361.096 459.646 360.715 458.124 359.574 455.08 358.432 452.036 356.149 449.753 355.769 449.372 355.769 448.611 356.149 447.85 356.53 447.47 357.291 447.47 358.052 447.85 360.715 450.514 362.237 453.938 363.379 457.363L365.281 461.929C365.662 462.69 365.281 463.451 364.901 463.831Z" transform="matrix(-0.987216 -0.159394 -0.159394 0.987215 2291.71 611.462)"/><path d="M164.377 449.372C152.201 451.275 145.352 462.309 135.078 468.017 125.565 473.724 121.76 466.114 120.999 464.592 119.477 463.831 119.477 465.353 117.194 463.07 108.443 448.992 126.327 438.718 135.839 431.869 149.157 428.825 157.528 440.24 164.377 449.372" fill="#F6D2A2" fill-rule="evenodd" transform="matrix(-0.987216 -0.159394 -0.159394 0.987215 2291.71 611.462)"/><path d="M128.61 471.061C123.663 471.061 120.999 466.875 120.238 465.353L119.858 465.353C118.716 465.353 117.955 464.973 116.433 463.451L116.433 463.07C108.062 449.753 122.521 439.479 132.034 432.63L135.459 430.347 136.22 430.347C137.742 429.967 138.883 429.967 140.405 429.967 151.82 429.967 159.05 439.86 165.138 447.85L167.04 450.514 164.757 450.894C157.528 452.036 152.201 456.602 146.874 461.168 143.449 464.212 140.025 466.875 136.22 469.158 133.176 470.3 130.893 471.061 128.61 471.061ZM120.238 463.07C120.619 463.07 120.999 463.07 121.76 463.451L122.141 463.451 122.521 463.831C123.282 464.973 125.185 468.397 128.99 468.397 130.893 468.397 132.795 467.636 134.698 466.495 138.503 464.592 141.927 461.548 144.971 458.885 149.918 454.699 155.245 450.133 162.094 448.231 156.386 440.621 149.537 432.25 140.025 432.25 138.883 432.25 137.742 432.25 136.6 432.63L133.556 434.913C123.663 441.762 111.487 450.514 118.716 461.929 119.097 462.69 119.477 463.07 120.238 463.07ZM120.999 465.734C120.238 465.734 119.477 464.973 119.858 464.212 120.238 460.407 122.141 457.743 124.043 454.699 125.185 453.177 125.946 451.655 126.707 450.133 127.088 449.372 127.849 449.372 128.229 449.372 128.99 449.753 128.99 450.514 128.99 450.894 128.229 452.797 127.088 454.319 125.946 455.841 124.043 458.504 122.521 460.787 122.141 463.831 122.141 465.353 121.76 465.734 120.999 465.734Z" transform="matrix(-0.987216 -0.159394 -0.159394 0.987215 2291.71 611.462)"/><path d="M113.77 82.5688C106.921 79.1443 101.974 74.1978 106.16 66.2073 109.965 58.9777 117.194 59.7387 124.043 63.1633ZM360.715 75.7198C367.564 72.2953 372.511 67.3488 368.325 59.3582 364.52 52.1287 357.291 52.8897 350.442 56.3142Z" fill-rule="evenodd" transform="matrix(-0.987216 -0.159394 -0.159394 0.987215 2291.71 611.462)"/><path d="M407.517 259.502C406.756 272.82 393.439 266.732 387.351 262.546 381.643 258.361 379.741 261.785 379.36 253.794 378.979 248.467 378.599 243.521 378.599 238.194 387.351 237.433 396.863 239.335 404.093 244.662 407.898 247.706 414.747 256.078 407.517 259.502" fill="#F6D2A2" fill-rule="evenodd" transform="matrix(-0.987216 -0.159394 -0.159394 0.987215 2291.71 611.462)"/><path d="M400.668 269.015C394.961 269.015 388.492 264.829 386.59 263.688 384.687 262.546 383.546 261.785 382.404 261.405 379.36 260.263 378.599 259.502 378.219 253.794 378.219 252.653 378.219 251.511 377.838 250.37 377.457 246.565 377.077 242.379 377.457 238.194L377.457 237.052 382.404 237.052C390.775 237.052 398.766 239.335 404.854 243.901 407.517 245.804 412.464 251.131 412.083 255.697 412.083 257.219 411.322 259.122 409.039 260.263 408.278 267.873 403.332 269.015 400.668 269.015ZM379.741 239.716C379.741 243.14 379.741 246.945 380.121 250.37 380.121 251.511 380.121 252.653 380.501 253.794 380.882 258.361 381.263 258.361 383.165 259.122 384.307 259.502 385.829 260.263 388.112 261.405 391.536 263.688 396.863 266.351 400.668 266.351 402.951 266.351 405.995 265.59 406.376 259.502L406.376 258.741 407.137 258.361C408.659 257.6 409.42 256.839 409.42 255.317 409.8 252.273 405.995 247.706 403.332 245.804 397.624 241.618 390.014 239.335 382.404 239.335 381.643 239.716 380.882 239.716 379.741 239.716Z" transform="matrix(-0.987216 -0.159394 -0.159394 0.987215 2291.71 611.462)"/><path d="M407.517 259.502C405.615 258.741 403.332 258.361 402.19 256.458" fill="#C6B198" fill-rule="evenodd" transform="matrix(-0.987216 -0.159394 -0.159394 0.987215 2291.71 611.462)"/><path d="M407.517 261.024 407.137 261.024 406.376 260.644C404.473 259.883 402.571 259.502 401.429 257.6 401.049 257.219 401.049 256.078 401.81 255.697 402.19 255.317 403.332 255.317 403.712 256.078 404.473 257.219 405.995 257.6 407.517 258.361 407.898 258.361 408.278 258.741 408.278 258.741 409.039 259.122 409.42 259.883 409.039 260.263 408.659 260.644 407.898 261.024 407.517 261.024Z" transform="matrix(-0.987216 -0.159394 -0.159394 0.987215 2291.71 611.462)"/><path d="M238.955 15.2201C290.703 15.2201 339.027 22.4496 364.52 72.2953 387.351 127.849 378.979 187.968 382.785 246.945 385.829 297.552 392.297 355.769 369.086 402.571 344.354 451.655 282.713 464.212 232.106 462.309 192.153 460.787 144.21 447.85 121.38 411.322 95.1254 368.706 107.301 305.162 109.204 257.6 111.487 201.285 93.9839 144.591 112.628 89.7984 131.273 32.3426 183.021 19.4056 238.955 15.2201" fill="#6AD7E5" fill-rule="evenodd" transform="matrix(-0.987216 -0.159394 -0.159394 0.987215 2291.71 611.462)"/><path d="M240.857 463.831 231.345 463.831C215.744 463.451 192.153 460.787 168.943 451.275 146.493 442.143 130.132 429.206 119.477 412.083 98.1694 377.457 101.974 329.895 105.399 287.659 106.16 277.005 106.921 267.112 107.301 257.6 108.062 237.813 106.54 217.266 104.638 197.861 101.594 162.094 98.5499 125.185 110.345 89.4179 119.477 62.7827 135.839 43.7577 160.572 31.5816 179.977 22.0691 203.949 16.7421 238.194 14.0786 289.181 13.6981 339.788 20.9276 365.281 71.5343 382.024 112.248 382.024 156.006 382.404 198.241 382.404 214.222 382.404 230.584 383.546 246.565 383.926 251.511 384.307 256.458 384.307 261.405 387.351 307.826 390.775 360.335 369.467 402.951 358.813 424.64 340.168 440.621 314.675 450.894 294.128 459.265 268.254 463.831 240.857 463.831ZM238.955 16.3616C185.304 20.5471 132.795 32.3426 113.389 90.1789 101.594 125.565 104.638 162.094 107.682 197.48 109.204 217.266 111.106 237.433 110.345 257.6 109.965 267.112 109.204 277.005 108.443 287.659 105.018 329.514 101.213 376.697 122.141 410.561 130.893 424.64 159.05 458.124 231.725 460.787L241.238 460.787C325.329 460.787 356.53 423.498 367.945 401.429 388.873 359.574 385.448 307.065 382.785 261.024 382.404 256.078 382.024 251.131 382.024 246.184 381.263 230.203 380.882 213.842 380.882 197.861 380.501 156.006 380.501 112.248 364.14 71.9148 352.725 49.4652 335.602 34.2451 312.011 25.4936 287.659 17.5031 260.263 16.3616 238.955 16.3616Z" transform="matrix(-0.987216 -0.159394 -0.159394 0.987215 2291.71 611.462)"/><path d="M248.087 84.4713C257.219 138.503 345.495 124.043 332.939 69.6318 321.524 20.9276 245.043 34.6256 248.087 84.4713" fill="#FFFFFF" fill-rule="evenodd" transform="matrix(-0.987216 -0.159394 -0.159394 0.987215 2291.71 611.462)"/><path d="M289.942 119.858C272.82 119.858 251.131 110.726 246.565 84.8518 245.804 72.6758 249.609 61.6412 257.6 53.2702 266.351 43.7577 279.669 38.4307 293.367 38.4307 309.348 38.4307 328.373 46.8017 333.7 70.0123 336.744 82.9493 334.461 94.3644 327.231 103.496 319.241 113.389 305.162 119.858 289.942 119.858ZM249.228 84.4713C251.131 95.1254 256.078 103.496 264.068 109.584 270.917 114.911 280.43 117.575 289.942 117.575 304.021 117.575 317.719 111.487 325.329 101.974 332.178 93.6034 334.08 82.5688 331.417 70.3928 326.47 48.7042 308.587 41.0942 293.367 41.0942 280.43 41.0942 267.873 46.4212 259.502 55.1727 252.273 62.7827 248.467 73.0563 249.228 84.4713Z" transform="matrix(-0.987216 -0.159394 -0.159394 0.987215 2291.71 611.462)"/><path d="M142.688 93.2229C154.864 140.025 229.823 128.229 227.159 81.0468 223.735 24.7326 130.893 35.3866 142.688 93.2229" fill="#FFFFFF" fill-rule="evenodd" transform="matrix(-0.987216 -0.159394 -0.159394 0.987215 2291.71 611.462)"/><path d="M182.641 124.424C166.279 124.424 147.254 116.433 141.166 93.6034 138.503 80.2858 141.166 68.1098 148.776 58.9777 157.147 48.7042 170.845 42.6162 185.685 42.6162 205.471 42.6162 226.398 54.4117 227.92 81.0468 228.681 92.0814 225.257 101.974 217.647 109.965 209.656 118.716 196.339 124.424 182.641 124.424ZM185.685 45.2797C171.606 45.2797 158.669 50.9872 150.679 60.4997 143.449 69.2513 141.166 80.2858 143.83 92.8424 149.157 114.15 167.421 121.76 182.641 121.76 195.578 121.76 208.134 116.814 216.125 108.062 222.974 100.833 226.398 91.3204 225.637 81.0468 224.876 64.6853 213.842 45.2797 185.685 45.2797Z" transform="matrix(-0.987216 -0.159394 -0.159394 0.987215 2291.71 611.462)"/><path d="M258.741 149.157C258.741 156.006 260.263 163.996 259.122 171.606 257.219 175.031 253.794 175.411 250.751 176.553 246.565 175.792 243.14 173.128 241.238 169.323 240.096 160.952 241.618 152.581 241.999 144.21Z" fill="#FFFFFF" fill-rule="evenodd" transform="matrix(-0.987216 -0.159394 -0.159394 0.987215 2291.71 611.462)"/><path d="M250.751 178.075C245.804 177.314 241.999 174.27 240.096 170.084 239.335 163.996 239.716 158.289 240.096 152.581 240.477 149.918 240.477 147.254 240.477 144.591L240.477 143.069 259.883 149.157 259.883 149.918C259.883 152.201 260.263 154.484 260.263 157.147 260.644 162.094 261.024 167.421 260.263 172.367L260.263 172.748C258.741 175.792 256.078 176.553 253.414 177.694 252.653 177.314 251.892 177.694 250.751 178.075ZM242.379 168.943C243.901 172.367 246.945 174.65 250.37 175.411 251.131 175.031 251.892 175.031 252.273 174.65 254.556 173.889 256.458 173.128 257.6 171.226 258.361 166.66 257.98 161.713 257.6 156.767 257.6 154.484 257.219 152.201 257.219 150.298L242.76 145.732C242.76 148.015 242.379 150.298 242.379 152.201 241.999 158.289 241.618 163.616 242.379 168.943Z" transform="matrix(-0.987216 -0.159394 -0.159394 0.987215 2291.71 611.462)"/><path d="M176.172 85.6128C176.172 93.2229 170.465 99.3109 163.616 99.3109 156.767 99.3109 151.059 93.2229 151.059 85.6128 151.059 78.0028 156.767 71.9148 163.616 71.9148 170.465 71.9148 176.172 78.0028 176.172 85.6128" fill-rule="evenodd" transform="matrix(-0.987216 -0.159394 -0.159394 0.987215 2291.71 611.462)"/><path d="M171.987 88.6568C171.987 90.5594 170.465 92.0814 168.943 92.0814 167.421 92.0814 165.899 90.5594 165.899 88.6568 165.899 86.7543 167.421 85.2323 168.943 85.2323 170.845 85.2323 171.987 86.7543 171.987 88.6568" fill="#FFFFFF" fill-rule="evenodd" transform="matrix(-0.987216 -0.159394 -0.159394 0.987215 2291.71 611.462)"/><path d="M282.332 82.1883C282.332 89.7984 276.625 95.8864 269.776 95.8864 262.927 95.8864 257.219 89.7984 257.219 82.1883 257.219 74.5783 262.927 68.4903 269.776 68.4903 276.625 68.4903 282.332 74.5783 282.332 82.1883" fill-rule="evenodd" transform="matrix(-0.987216 -0.159394 -0.159394 0.987215 2291.71 611.462)"/><path d="M278.527 85.2323C278.527 87.1348 277.386 88.6568 275.483 88.6568 273.961 88.6568 272.439 87.1348 272.439 85.2323 272.439 83.3298 273.581 81.8078 275.483 81.8078 277.005 81.8078 278.527 83.3298 278.527 85.2323M222.213 148.396C216.505 161.713 225.257 188.729 240.477 168.943 239.335 160.572 240.857 152.201 241.238 143.83Z" fill="#FFFFFF" fill-rule="evenodd" transform="matrix(-0.987216 -0.159394 -0.159394 0.987215 2291.71 611.462)"/><path d="M230.203 177.314C227.54 177.314 224.876 175.792 222.974 172.748 218.788 166.66 218.027 155.245 221.071 148.015L221.452 147.254 242.379 141.927 242.379 143.449 241.999 151.82C241.618 157.528 241.238 162.855 241.999 168.562L241.999 168.943 241.618 169.323C237.813 174.65 234.008 177.314 230.203 177.314ZM223.354 149.537C221.071 156.006 221.832 166.279 225.257 171.226 226.779 173.509 228.301 174.65 230.203 174.65 232.867 174.65 235.911 172.367 238.955 168.562 238.194 162.855 238.574 157.147 239.335 151.82L239.716 145.352Z" transform="matrix(-0.987216 -0.159394 -0.159394 0.987215 2291.71 611.462)"/><path d="M224.115 122.521C213.842 123.282 205.471 135.839 210.798 145.352 218.027 158.289 233.628 144.21 243.521 145.352 254.936 145.732 264.068 157.528 273.2 147.635 283.474 136.6 268.634 125.946 257.6 120.999Z" fill="#F6D2A2" fill-rule="evenodd" transform="matrix(-0.987216 -0.159394 -0.159394 0.987215 2291.71 611.462)"/><path d="M265.21 152.962C261.785 152.962 258.361 151.44 254.936 149.918 251.511 148.396 247.706 146.874 243.521 146.874L242.379 146.874C239.335 146.874 235.911 148.015 232.106 149.537 227.92 151.059 223.735 152.201 219.93 152.201 215.364 152.201 211.939 150.298 209.656 146.113 206.993 141.547 207.373 136.22 210.037 131.273 213.081 125.565 218.408 122.141 224.115 121.38L257.98 119.858 258.361 119.858C266.732 123.282 276.244 129.751 278.147 137.361 278.908 141.166 277.766 144.971 274.722 148.396 271.678 151.82 268.634 152.962 265.21 152.962ZM243.901 144.591C248.087 144.591 252.273 146.493 256.078 148.015 259.502 149.537 262.546 150.679 265.59 150.679 268.254 150.679 270.537 149.537 272.82 147.254 275.483 144.591 276.244 141.547 275.864 138.503 274.342 132.034 265.21 125.946 257.98 122.902L224.876 124.424C219.93 124.804 215.364 128.229 212.7 132.795 210.417 136.981 210.417 141.547 212.32 145.352 214.222 148.776 216.505 150.298 220.31 150.298 223.735 150.298 227.54 148.776 231.345 147.635 235.53 146.113 238.955 144.971 242.76 144.971 242.76 144.21 243.14 144.21 243.901 144.591Z" fill="#231F20" transform="matrix(-0.987216 -0.159394 -0.159394 0.987215 2291.71 611.462)"/><path d="M222.974 122.141C222.213 104.257 256.458 101.974 260.263 116.814 264.449 132.034 224.496 135.459 222.974 122.141" fill-rule="evenodd" transform="matrix(-0.987216 -0.159394 -0.159394 0.987215 2291.71 611.462)"/></g></g></g><g><g><g><path d="M801.667 246.667C653.667 246.667 561.167 320.667 524.167 468.667 579.667 394.667 644.417 366.917 718.417 385.417 760.638 395.962 790.813 426.61 824.216 460.506 878.627 515.739 941.609 579.667 1079.17 579.667 1227.17 579.667 1319.67 505.667 1356.67 357.667 1301.17 431.667 1236.42 459.417 1162.42 440.917 1120.2 430.372 1090.02 399.723 1056.62 365.827 1002.21 310.594 939.224 246.667 801.667 246.667ZM524.167 579.667C376.167 579.667 283.667 653.667 246.667 801.667 302.167 727.667 366.917 699.917 440.917 718.417 483.138 728.982 513.313 759.61 546.716 793.506 601.127 848.739 664.109 912.667 801.667 912.667 949.667 912.667 1042.17 838.667 1079.17 690.667 1023.67 764.667 958.917 792.417 884.917 773.917 842.695 763.372 812.52 732.723 779.117 698.827 724.707 643.594 661.724 579.667 524.167 579.667Z" fill="#6366F1" fill-opacity="0.1" transform="matrix(1.00025 0 0 1 1109 1004)"/><path d="M719.444 164.444C571.444 164.444 478.944 238.444 441.944 386.444 497.444 312.444 562.194 284.694 636.194 303.194 678.416 313.739 708.591 344.388 741.994 378.284 796.404 433.517 859.387 497.444 996.944 497.444 1144.94 497.444 1237.44 423.444 1274.44 275.444 1218.94 349.444 1154.19 377.194 1080.19 358.694 1037.97 348.149 1007.8 317.501 974.395 283.605 919.984 228.372 857.002 164.444 719.444 164.444ZM441.944 497.444C293.944 497.444 201.444 571.444 164.444 719.444 219.944 645.444 284.694 617.694 358.694 636.194 400.916 646.76 431.091 677.388 464.494 711.284 518.904 766.517 581.887 830.444 719.444 830.444 867.444 830.444 959.944 756.444 996.944 608.444 941.444 682.444 876.694 710.194 802.694 691.694 760.473 681.149 730.298 650.501 696.895 616.605 642.484 561.372 579.502 497.444 441.944 497.444Z" fill="#6366F1" fill-opacity="0.25" transform="matrix(1.00025 0 0 1 1109 1004)"/><path d="M637.222 82.2222C489.222 82.2222 396.722 156.222 359.722 304.222 415.222 230.222 479.972 202.472 553.972 220.972 596.193 231.517 626.369 262.166 659.772 296.062 714.182 351.294 777.164 415.222 914.722 415.222 1062.72 415.222 1155.22 341.222 1192.22 193.222 1136.72 267.222 1071.97 294.972 997.972 276.472 955.751 265.927 925.576 235.279 892.173 201.383 837.762 146.15 774.78 82.2222 637.222 82.2222ZM359.722 415.222C211.722 415.222 119.222 489.222 82.2222 637.222 137.722 563.222 202.472 535.472 276.472 553.972 318.693 564.538 348.869 595.166 382.272 629.062 436.682 684.294 499.664 748.222 637.222 748.222 785.222 748.222 877.722 674.222 914.722 526.222 859.222 600.222 794.472 627.972 720.472 609.472 678.251 598.927 648.076 568.279 614.673 534.383 560.262 479.15 497.28 415.222 359.722 415.222Z" fill="#6366F1" fill-opacity="0.5" transform="matrix(1.00025 0 0 1 1109 1004)"/><path d="M555 0C407 0 314.5 74 277.5 222 333 148 397.75 120.25 471.75 138.75 513.971 149.295 544.147 179.943 577.549 213.839 631.96 269.072 694.942 333 832.5 333 980.5 333 1073 259 1110 111 1054.5 185 989.75 212.75 915.75 194.25 873.529 183.705 843.353 153.057 809.951 119.161 755.54 63.9278 692.558 0 555 0ZM277.5 333C129.5 333 37 407 0 555 55.5 481 120.25 453.25 194.25 471.75 236.471 482.316 266.647 512.943 300.049 546.839 354.46 602.072 417.442 666 555 666 703 666 795.5 592 832.5 444 777 518 712.25 545.75 638.25 527.25 596.029 516.705 565.853 486.057 532.451 452.161 478.04 396.928 415.058 333 277.5 333Z" fill="#6366F1" transform="matrix(1.00025 0 0 1 1109 1004)"/></g></g></g></g></svg>